<svg width="48" height="31" viewBox="0 0 48 31" fill="none" xmlns="http://www.w3.org/2000/svg">
<g clip-path="url(#clip0_65_75)">
<path d="M17.7099 1.80009C18.6559 0.853276 20.1884 0.852792 21.135 1.80027L26.6021 7.27743C28.2444 6.04381 30.6127 6.15085 32.137 7.67582L36.8877 12.426C37.2331 12.3369 37.5887 12.2913 37.9494 12.2913C40.0869 12.2913 41.8599 13.8818 42.1469 15.9416C42.2605 15.93 42.3751 15.9241 42.4903 15.9241C44.3265 15.9241 45.8203 17.4179 45.8203 19.2541C45.8203 19.3557 45.8154 19.4566 45.8064 19.5568H47.3946C47.5915 19.5568 47.7761 19.6526 47.8896 19.8136C48.003 19.9746 48.031 20.1807 47.9647 20.3662L44.6952 29.5086C44.609 29.7494 44.3809 29.9102 44.1251 29.9102H39.7658C39.4315 29.9102 39.1603 29.6391 39.1603 29.3047C39.1603 28.637 38.6171 28.0938 37.9494 28.0938H35.2248C34.8905 28.0938 34.6193 27.8227 34.6193 27.4883C34.6193 27.154 34.8905 26.8829 35.2248 26.8829H37.9494C39.0758 26.8829 40.0251 27.6559 40.2946 28.6993H43.6986L46.5351 20.7678H18.4656L21.3021 28.6993H24.7061C24.9755 27.6559 25.9248 26.8829 27.0512 26.8829H29.7757C30.1101 26.8829 30.3812 27.154 30.3812 27.4883C30.3812 27.8227 30.1101 28.0938 29.7757 28.0938H27.0512C26.3835 28.0938 25.8403 28.637 25.8403 29.3047C25.8403 29.6391 25.5691 29.9102 25.2348 29.9102H20.8755C20.6197 29.9102 20.3916 29.7494 20.3054 29.5086L17.0359 20.3662C16.9696 20.1807 16.9976 19.9746 17.111 19.8136C17.2245 19.6526 17.4091 19.5568 17.606 19.5568H19.2242C19.5131 17.5463 21.2181 15.9881 23.2929 15.9273C22.0391 14.4028 22.0271 12.2327 23.177 10.7021L17.7103 5.22474C16.7639 4.27908 16.7628 2.74636 17.7099 1.80009V1.80009ZM20.4521 19.5568H44.5877C44.6018 19.4572 44.6095 19.3561 44.6095 19.2541C44.6095 18.0856 43.6588 17.135 42.4904 17.135C42.2468 17.135 42.0084 17.1758 41.7819 17.2563C41.3806 17.3988 40.959 17.0925 40.9741 16.6645C41.0376 14.8753 39.6194 13.5023 37.9494 13.5023C36.2613 13.5023 34.9221 14.8748 34.9221 16.5296C34.9221 16.8639 34.651 17.135 34.3167 17.135C33.9823 17.135 33.7112 16.8639 33.7112 16.5296C33.7112 16.1324 33.7657 15.7446 33.8722 15.3703C33.6673 15.3248 33.4547 15.3088 33.2375 15.3252C32.6733 15.3702 32.16 15.6337 31.7922 16.067C31.5695 16.3294 31.173 16.3535 30.9201 16.1203C30.3596 15.6033 29.6307 15.3186 28.8676 15.3186C27.5469 15.3186 26.4219 16.1692 26.0103 17.3432C25.8794 17.7161 25.431 17.866 25.1023 17.646C24.593 17.3054 24.0074 17.1349 23.4185 17.1349C21.9564 17.135 20.7333 18.1767 20.4521 19.5568V19.5568ZM18.5668 4.36869L24.4312 10.2447C24.6673 10.4811 24.6671 10.8642 24.4308 11.1005C23.2478 12.2834 23.2475 14.1983 24.4309 15.3816L25.2274 16.1784C25.6506 15.471 26.2737 14.8994 27.0118 14.5377L26.1435 13.6694C25.907 13.433 25.907 13.0496 26.1435 12.8131C26.38 12.5767 26.7632 12.5767 26.9998 12.8131L28.3297 14.1431C28.508 14.1205 28.6877 14.1077 28.8676 14.1077C29.7412 14.1077 30.5828 14.3744 31.2897 14.8673C31.5133 14.6821 31.7587 14.5286 32.0202 14.4088L28.7119 11.1004C28.4755 10.864 28.4755 10.4806 28.7119 10.2442C28.9484 10.0077 29.3316 10.0077 29.5682 10.2442L33.4323 14.1084C33.7528 14.1107 34.0719 14.159 34.377 14.2514C34.7143 13.7248 35.166 13.2773 35.6932 12.9438L31.2809 8.53194C30.0978 7.34851 28.1831 7.34833 27 8.53194C26.7634 8.76867 26.3797 8.76843 26.1433 8.53163L20.2784 2.65591C19.8117 2.1888 19.0453 2.17687 18.5664 2.65627C18.0964 3.12574 18.0894 3.89171 18.5668 4.36869V4.36869Z" fill="black"/>
<path d="M32.5002 28.0938C32.1659 28.0938 31.8948 27.8227 31.8948 27.4883C31.8948 27.1539 32.1659 26.8829 32.5002 26.8829C32.8346 26.8829 33.1057 27.1539 33.1057 27.4883C33.1057 27.8227 32.8346 28.0938 32.5002 28.0938Z" fill="black"/>
</g>
<path d="M13.793 14.7785L4.76401 23.8075L1.20701 20.2505L0 21.4575L4.76401 26.2215L15 15.9855L13.793 14.7785Z" fill="#0EB614"/>
<defs>
<clipPath id="clip0_65_75">
<rect width="31" height="31" fill="white" transform="matrix(-1 0 0 1 48 0)"/>
</clipPath>
</defs>
</svg>
