<svg width="17" height="17" viewBox="0 0 17 17" fill="none" xmlns="http://www.w3.org/2000/svg">
<g clip-path="url(#clip0_1_30)">
<path d="M16.5373 12.4763L14.1649 10.1039C13.3176 9.2566 11.8772 9.59555 11.5383 10.697C11.2841 11.4596 10.4368 11.8832 9.67426 11.7137C7.97969 11.2901 5.69202 9.08714 5.26837 7.30784C5.01419 6.54525 5.52256 5.69797 6.28512 5.44381C7.38659 5.1049 7.7255 3.66451 6.87822 2.81723L4.50582 0.444825C3.82799 -0.148275 2.81125 -0.148275 2.21815 0.444825L0.608302 2.05467C-1.00154 3.74924 0.777759 8.23986 4.76 12.2221C8.74225 16.2043 13.2329 18.0684 14.9274 16.3738L16.5373 14.764C17.1304 14.0861 17.1304 13.0694 16.5373 12.4763Z" fill="black"/>
</g>
<defs>
<clipPath id="clip0_1_30">
<rect width="17" height="17" fill="white"/>
</clipPath>
</defs>
</svg>
