<svg width="56" height="49" viewBox="0 0 56 49" fill="none" xmlns="http://www.w3.org/2000/svg">
<path d="M55.4019 5.50779C55.0781 5.04873 54.5792 4.75513 54.0329 4.70248L49.8438 4.29862L49.3715 2.9934C49.173 2.44449 48.7282 2.02665 48.1817 1.87577L42.7248 0.367649C42.36 0.266865 41.969 0.292638 41.6185 0.44035C41.604 0.446186 41.5895 0.452508 41.5755 0.459073L36.0975 2.89249C35.8166 3.01735 35.6183 3.28433 35.5737 3.59762C35.5292 3.91104 35.6447 4.22592 35.8791 4.42943L37.1635 5.54487L36.0254 8.39347C34.5417 12.1071 31.0783 14.59 27.2021 14.7192L13.141 15.1877L11.7644 13.965C10.722 13.039 10.343 11.5207 10.821 10.1868L11.2066 9.11051C11.5823 8.06266 11.1726 6.90443 10.2324 6.35638C9.70321 6.0477 9.06846 5.98229 8.49084 6.17693C7.91321 6.37157 7.43694 6.8113 7.18379 7.38343L6.9514 7.90863C5.5552 11.0659 5.83322 14.71 7.65067 17.5858C6.55255 18.5223 5.63591 19.7977 5.36868 21.5147C4.85734 24.8005 4.64677 31.0445 4.56676 34.474C4.55104 35.1466 4.15794 35.76 3.56507 36.0363C2.50801 36.5293 1.76322 37.5312 1.57248 38.7162L0.809386 43.4613C0.671315 44.3203 0.903585 45.1942 1.44684 45.8589C1.99009 46.5234 2.78368 46.9045 3.62408 46.9045H6.336C6.80523 46.9045 7.25394 46.6968 7.5668 46.3343C7.87978 45.9719 8.02946 45.487 7.97761 45.0038C7.84247 43.743 7.05944 42.6669 5.9483 42.178C6.61555 40.9563 7.65513 40.0123 8.93121 39.4832C10.9757 38.6357 12.6223 37.0341 13.568 34.9733L15.894 29.905C16.641 29.5441 19.1851 28.5561 22.8841 29.6516C24.3815 30.095 25.8014 30.5903 27.1746 31.0693C29.7378 31.9633 31.8574 32.7011 33.4745 32.7465C33.7153 37.0066 33.8812 41.9016 33.5311 43.3527C33.2749 44.4146 33.3882 45.3678 33.8678 46.1859C34.6762 47.5644 36.206 47.976 36.3778 48.0183C36.4445 48.0348 36.5129 48.0431 36.5815 48.0431H38.6104C39.1269 48.0431 39.6 47.7968 39.9083 47.3672C40.2166 46.9377 40.3083 46.3973 40.1599 45.8846C39.8095 44.674 38.9969 43.6952 37.9245 43.1548L40.7993 32.6622C42.268 31.0773 43.2786 29.1106 43.7277 26.9588L46.4748 13.7963C47.6158 13.5044 49.2187 13.1897 51.1615 12.8776C53.2305 12.5452 54.9226 10.8959 55.3722 8.77351L55.7259 7.10369C55.8436 6.5487 55.7254 5.96685 55.4019 5.50779ZM40.9707 2.71196L40.7825 5.83944C40.7755 5.95348 40.7071 6.00709 40.6511 6.03214C40.5949 6.0573 40.5099 6.07189 40.4256 5.9987L38.1063 3.98447L40.9707 2.71196ZM8.55113 8.66871L8.78352 8.14351C8.85003 7.99276 8.96957 7.93331 9.03491 7.91143C9.10025 7.88954 9.2307 7.86486 9.36982 7.94595C9.5506 8.05136 9.62943 8.27408 9.55716 8.47577L9.17157 9.55219C8.43793 11.5989 9.01978 13.9288 10.6194 15.3498L11.0085 15.6954C10.44 15.903 9.77876 16.188 9.11186 16.5691C7.63519 14.2183 7.4116 11.2453 8.55113 8.66871ZM54.0073 6.71295L53.6536 8.38277C53.3585 9.77564 52.2487 10.8578 50.8921 11.0757C48.5404 11.4536 46.7246 11.8242 45.4947 12.177C44.7783 12.3827 43.9871 12.2814 43.3238 11.8997C42.1605 11.2299 41.4349 10.7796 41.4279 10.7751C41.011 10.5159 40.4706 10.6563 40.2208 11.088C39.9708 11.5199 40.1059 12.0798 40.5226 12.3389C40.5529 12.3577 41.2778 12.8079 42.4695 13.4939C43.1389 13.8794 43.8709 14.0835 44.6106 14.1043L42.0081 26.5736C41.6142 28.4608 40.7096 30.1801 39.3921 31.5454C39.2862 31.6553 39.2089 31.7914 39.1679 31.941L36.0099 43.4671C35.8773 43.951 36.148 44.4549 36.6146 44.593L36.7337 44.6283C37.5107 44.8584 38.1262 45.4461 38.4124 46.2196H36.7055C36.5283 46.1609 36.1061 45.9979 35.7451 45.682C35.2033 45.2074 35.0422 44.6079 35.2384 43.7952C35.9399 40.8867 34.9633 28.4054 34.8496 26.9917C34.8085 26.4804 34.3679 26.103 33.8724 26.1616C33.3943 26.2181 33.0592 26.683 33.0991 27.1801C33.1737 28.1112 33.2699 29.4286 33.3647 30.9188C32.0061 30.8302 29.9213 30.1033 27.736 29.3411C26.4087 28.878 24.9041 28.3533 23.3676 27.8984C20.6509 27.0939 18.4355 27.2764 16.9353 27.6364L17.5887 26.2128C17.7956 25.7619 17.6406 25.2036 17.212 24.9758C16.7683 24.74 16.228 24.932 16.0153 25.3952L11.9791 34.1903C11.2242 35.8352 9.90979 37.1137 8.27792 37.7903C6.35606 38.5869 4.84877 40.1115 4.03325 42.0831L3.92802 42.3378C3.86796 42.4832 3.83593 42.6415 3.85013 42.799C3.88426 43.1793 4.13307 43.4831 4.46494 43.5904L5.11142 43.7998C5.68107 43.9843 6.10197 44.4796 6.21119 45.0812H3.65587C3.4026 45.0812 3.15074 45.0043 2.95167 44.842C2.63001 44.5797 2.48032 44.1662 2.54555 43.7614L3.30852 39.0163C3.40225 38.434 3.76825 37.9419 4.28757 37.6996C5.49397 37.137 6.29424 35.8884 6.32638 34.5183C6.38985 31.7946 6.59291 25.1033 7.10625 21.8054C7.65173 18.3001 12.3525 17.1481 12.9312 17.0194L27.2591 16.542C31.8247 16.3899 35.9038 13.4653 37.6516 9.09118L38.5778 6.77301L39.2962 7.39692C39.8712 7.8955 40.6565 8.01476 41.346 7.70767C42.035 7.40094 42.4921 6.72876 42.5389 5.95324L42.7611 2.26469L47.7244 3.63373L47.9747 4.32536L47.1301 4.38372C46.6583 4.4163 46.269 4.81543 46.2746 5.30537C46.2804 5.81197 46.6782 6.20769 47.1535 6.20769C47.1732 6.20769 47.193 6.20696 47.2129 6.20562C48.5372 6.11408 49.8664 6.13219 51.1879 6.2596L53.8704 6.51819C53.928 6.52378 53.9625 6.55673 53.9814 6.58347C53.9998 6.61022 54.0196 6.65435 54.0073 6.71295Z" fill="black"/>
</svg>
