<svg width="54" height="54" viewBox="0 0 54 54" fill="none" xmlns="http://www.w3.org/2000/svg">
<g clip-path="url(#clip0_1_96)">
<path d="M35.8144 25.6015C35.8107 25.6015 35.8072 25.6015 35.8035 25.6015H31.365V21.1522C31.371 20.2548 30.6484 19.5224 29.751 19.5164C29.7473 19.5164 29.7437 19.5164 29.7401 19.5164H23.3278C22.4304 19.5164 21.7029 20.2439 21.7029 21.1413V25.5906H17.2644C16.367 25.5846 15.6346 26.3071 15.6286 27.2045C15.6286 27.2119 15.6286 27.2191 15.6286 27.2264V33.6279C15.6286 34.5253 16.3561 35.2528 17.2535 35.2528H21.7029V39.6913C21.6969 40.5886 22.4195 41.3211 23.3169 41.3271C23.3205 41.3271 23.3242 41.3271 23.3278 41.3271H29.7292C30.6266 41.3271 31.3541 40.5995 31.3541 39.7022V35.2528H35.8035C36.7009 35.2588 37.4333 34.5362 37.4393 33.6388C37.4393 33.6351 37.4393 33.6314 37.4393 33.6279V27.2264C37.4393 26.3291 36.7119 25.6015 35.8144 25.6015ZM35.2582 33.0717H30.2745C29.6722 33.0717 29.1839 33.56 29.1839 34.1622V39.146H23.8839V34.1622C23.8839 33.56 23.3957 33.0717 22.7934 33.0717H17.8097V27.7826H22.7934C23.3957 27.7826 23.8839 27.2943 23.8839 26.6921V21.6974H29.173V26.6812C29.173 27.2834 29.6613 27.7717 30.2636 27.7717H35.2582V33.0717Z" fill="black"/>
<path d="M45.5092 11.3591H36.5232V7.52046C36.5798 5.76879 35.2056 4.30283 33.4539 4.24626C33.3646 4.2434 33.2754 4.24422 33.1862 4.24885H19.8817C18.1314 4.15766 16.6386 5.50256 16.5472 7.25273C16.5426 7.34188 16.5416 7.43117 16.5446 7.52046V11.3373H7.55863C4.09073 11.3373 0.0339355 13.3112 0.0339355 18.862V42.5812C0.0339355 48.132 4.09073 50.1058 7.55863 50.1058H45.5092C48.9771 50.1058 53.0339 48.132 53.0339 42.5812V18.8838C53.0339 13.333 48.9881 11.3591 45.5092 11.3591ZM18.7257 7.52046C18.7257 7.2042 18.7257 6.35359 19.8926 6.35359H33.1862C34.3531 6.35359 34.3531 7.1933 34.3531 7.52046V11.3373H18.7257V7.52046ZM50.8529 42.5812C50.8529 47.4013 47.1232 47.9248 45.5092 47.9248H7.55863C5.95554 47.9248 2.21501 47.4013 2.21501 42.5812V18.8838C2.21501 14.0637 5.94464 13.5402 7.55863 13.5402H45.5092C47.1123 13.5402 50.8529 14.0637 50.8529 18.8838V42.5812Z" fill="black"/>
</g>
<defs>
<clipPath id="clip0_1_96">
<rect width="53" height="53" fill="white" transform="translate(0.0339355 0.675171)"/>
</clipPath>
</defs>
</svg>
