<svg width="50" height="60" viewBox="0 0 50 60" fill="none" xmlns="http://www.w3.org/2000/svg">
<path d="M0 7C0 3.13401 3.13401 0 7 0H43C46.866 0 50 3.13401 50 7V43C50 46.866 46.866 50 43 50H28.2831C26.2187 50 24.2771 50.9811 23.0525 52.6431V52.6431C20.5092 56.0947 15.379 56.18 12.7223 52.8149L12.5242 52.564C11.2458 50.9447 9.29635 50 7.23327 50H7C3.13401 50 0 46.866 0 43V7Z" fill="black"/>
<g clip-path="url(#clip0_11_144)">
<path d="M28.6048 28.5223C28.6715 26.115 27.5231 23.8686 25.5326 22.5135C23.5421 21.1583 21.0312 20.9134 18.8161 21.858L13.478 24.134C12.5924 24.5115 11.8672 25.1507 11.3811 25.9818C10.8949 26.813 10.6936 27.7583 10.7985 28.7158C10.9042 29.673 11.3065 30.552 11.9618 31.2578C12.6171 31.9636 13.4643 32.4295 14.4114 32.6054L14.475 32.6169C16.8472 33.0755 18.9382 34.5098 20.2199 36.5599C20.5506 37.0886 20.9792 37.534 21.4837 37.8775C21.758 38.0642 22.0552 38.2209 22.371 38.3448C23.2678 38.6959 24.2331 38.748 25.1627 38.4953C26.0918 38.2426 26.8978 37.7088 27.4932 36.9516C28.0886 36.1945 28.4174 35.2856 28.4442 34.3229L28.6048 28.5223Z" fill="url(#paint0_linear_11_144)"/>
<path d="M16.9282 20.565C17.8997 20.7935 18.9073 20.5712 19.7653 19.939C20.5819 19.3375 21.167 18.4291 21.4128 17.3809C21.6581 16.3331 21.5376 15.2594 21.0737 14.3574C20.5863 13.41 19.7828 12.7628 18.8122 12.5357C16.8605 12.0773 14.8494 13.5055 14.3286 15.7204C13.916 17.4847 14.572 19.2223 15.8425 20.0873C16.1669 20.3081 16.5314 20.4721 16.9282 20.565Z" fill="url(#paint1_linear_11_144)"/>
<path d="M24.1051 20.8207C26.0388 22.1372 28.8323 21.4159 30.3321 19.2129C31.8324 17.0093 31.4797 14.1455 29.546 12.829C27.6125 11.5127 24.819 12.2345 23.3188 14.4381C21.8189 16.6411 22.1717 19.5044 24.1051 20.8207Z" fill="url(#paint2_linear_11_144)"/>
<path d="M29.4932 25.9256L29.4934 25.9257C29.7236 26.2269 29.995 26.4807 30.2971 26.6864C31.7073 27.6465 33.7804 27.5558 35.3787 26.3354C36.2989 25.633 36.9327 24.6594 37.1632 23.5941C37.4047 22.479 37.1812 21.398 36.5338 20.5502C35.8862 19.7023 34.9021 19.2021 33.7628 19.1414C32.6744 19.0834 31.5684 19.4385 30.6486 20.1412C28.7079 21.6232 28.1896 24.2181 29.4932 25.9256V25.9256Z" fill="url(#paint3_linear_11_144)"/>
<path d="M37.1958 30.4872L37.1956 30.4862C36.5328 28.5933 34.2478 27.6625 32.1013 28.4116C29.9554 29.1621 28.7471 31.3125 29.4074 33.2048C29.6481 33.8952 30.1048 34.4577 30.6921 34.8575C31.7155 35.5543 33.136 35.7569 34.5019 35.2809C36.6476 34.5302 37.8561 32.3799 37.1958 30.4872V30.4872Z" fill="url(#paint4_linear_11_144)"/>
</g>
<defs>
<linearGradient id="paint0_linear_11_144" x1="25.5327" y1="22.5135" x2="17.1031" y2="34.8951" gradientUnits="userSpaceOnUse">
<stop stop-color="#FFC852"/>
<stop offset="1" stop-color="#F8AD0E"/>
</linearGradient>
<linearGradient id="paint1_linear_11_144" x1="20.1614" y1="13.1887" x2="15.5844" y2="19.9115" gradientUnits="userSpaceOnUse">
<stop stop-color="#FFC852"/>
<stop offset="1" stop-color="#F8AD0E"/>
</linearGradient>
<linearGradient id="paint2_linear_11_144" x1="29.5462" y1="12.8292" x2="24.1053" y2="20.8209" gradientUnits="userSpaceOnUse">
<stop stop-color="#FFC852"/>
<stop offset="1" stop-color="#F8AD0E"/>
</linearGradient>
<linearGradient id="paint3_linear_11_144" x1="35.4808" y1="19.6165" x2="30.5502" y2="26.8587" gradientUnits="userSpaceOnUse">
<stop stop-color="#FFC852"/>
<stop offset="1" stop-color="#F8AD0E"/>
</linearGradient>
<linearGradient id="paint4_linear_11_144" x1="35.5285" y1="28.5752" x2="31.0742" y2="35.1177" gradientUnits="userSpaceOnUse">
<stop stop-color="#FFC852"/>
<stop offset="1" stop-color="#F8AD0E"/>
</linearGradient>
<clipPath id="clip0_11_144">
<rect width="28.8821" height="28.8821" fill="white" transform="translate(21.254 5) rotate(34.2476)"/>
</clipPath>
</defs>
</svg>
