<svg width="56" height="56" viewBox="0 0 56 56" fill="none" xmlns="http://www.w3.org/2000/svg">
<g clip-path="url(#clip0_1_103)">
<path d="M43.5694 11.5938C43.5694 7.78794 41.1234 1.75 34.5599 1.75C31.8632 1.75 29.5948 3.04445 27.7977 5.60317C26.0007 3.04445 23.7321 1.75 21.0355 1.75C14.4719 1.75 12.026 7.78794 12.026 11.5938C12.026 18.1555 17.0558 22.26 23.927 28.2425C24.9367 29.1214 25.9807 30.0304 27.0938 31.0137C27.2957 31.1921 27.5467 31.2812 27.7977 31.2812C28.0488 31.2812 28.2997 31.1921 28.5017 31.0137C29.6148 30.0304 30.6588 29.1214 31.6685 28.2425C38.8621 21.9793 43.5694 18.0168 43.5694 11.5938ZM27.7977 28.7411C26.9393 27.9869 26.1207 27.2741 25.3233 26.5798C18.1344 20.321 14.1745 16.8733 14.1745 11.5938C14.1745 8.01248 16.4756 3.9375 21.0355 3.9375C23.4152 3.9375 25.3189 5.32875 26.8552 8.19066C27.0435 8.54153 27.405 8.75984 27.7977 8.75984C28.1905 8.75984 28.5519 8.54153 28.7402 8.19066C30.2766 5.32875 32.1802 3.9375 34.5599 3.9375C39.0562 3.9375 41.421 7.952 41.421 11.5938C41.421 16.8733 37.4611 20.321 30.2722 26.5799C29.4748 27.2741 28.6561 27.9869 27.7977 28.7411Z" fill="black"/>
<path d="M8.01685 44.6375L13.1884 47.2698V53.1562C13.1884 53.7602 13.6694 54.25 14.2626 54.25H25.6493C26.2425 54.25 26.7235 53.7602 26.7235 53.1562V38.8773C26.7235 35.5263 24.2546 32.7474 20.9888 32.414L20.9009 32.4044C19.0106 32.2115 15.6636 30.895 14.342 29.5495L11.9295 27.0942C11.1177 26.2677 10.0389 25.8125 8.89148 25.8125V17.0625C8.89148 14.6501 6.9639 12.6875 4.5946 12.6875C2.22531 12.6875 0.297729 14.6501 0.297729 17.0625V31.92C0.297729 37.3028 3.28384 42.2274 8.01685 44.6375ZM2.44617 17.0625C2.44617 15.8563 3.40996 14.875 4.5946 14.875C5.77925 14.875 6.74304 15.8563 6.74304 17.0625V26.3989C5.43292 27.1702 4.5946 28.6082 4.5946 30.1875C4.5946 31.3557 5.04169 32.4542 5.85348 33.2806L11.3546 38.8828C11.7739 39.31 12.4541 39.31 12.8737 38.8829C13.2932 38.4559 13.2933 37.7634 12.8738 37.3361L7.37275 31.7338C6.96659 31.3205 6.74304 30.7713 6.74304 30.1875C6.74304 29.2617 7.3185 28.4327 8.17519 28.1246C8.1753 28.1246 8.17551 28.1245 8.17562 28.1244C8.17583 28.1242 8.17616 28.1243 8.17637 28.1241C8.91737 27.8564 9.79629 28.0159 10.4104 28.6413L12.8229 31.0966C15.3136 33.6326 20.7553 34.5868 20.7661 34.5898C22.9375 34.8114 24.575 36.6547 24.575 38.8773V52.0625H15.3367V46.5938C15.3367 46.1794 15.1067 45.8007 14.7429 45.6155L8.97763 42.681C4.94899 40.6294 2.44617 36.5061 2.44617 31.92V17.0625Z" fill="black"/>
<path d="M49.6044 43.0938C50.1976 43.0938 50.6786 42.6041 50.6786 42C50.6786 41.3959 50.1976 40.9062 49.6044 40.9062C49.0111 40.9062 48.5302 41.3959 48.5302 42C48.5302 42.6041 49.0111 43.0938 49.6044 43.0938Z" fill="black"/>
<path d="M51.0009 12.6875C48.6316 12.6875 46.704 14.6501 46.704 17.0625V25.8125C45.5566 25.8125 44.4778 26.2677 43.6662 27.0942L41.2533 29.5497C39.9319 30.8952 36.5848 32.2116 34.6862 32.4053L34.615 32.4132C31.3408 32.7474 28.8719 35.5264 28.8719 38.8773V53.1562C28.8719 53.7602 29.353 54.25 29.9462 54.25H41.3329C41.9261 54.25 42.4071 53.7602 42.4071 53.1562V47.2698L45.923 45.4802C46.4536 45.21 46.6687 44.5531 46.4035 44.0128C46.1382 43.4726 45.4929 43.2533 44.9623 43.5236L40.8525 45.6155C40.4887 45.8007 40.2587 46.1794 40.2587 46.5938V52.0625H31.0204V38.8773C31.0204 36.6547 32.6578 34.8114 34.8376 34.589L34.9087 34.5811C37.2388 34.3432 41.0969 32.8025 42.7722 31.0967L45.1851 28.6412C45.801 28.0139 46.6816 27.8578 47.419 28.1241C47.4192 28.1243 47.4195 28.1242 47.4197 28.1244C47.4198 28.1244 47.4201 28.1245 47.4202 28.1246C48.277 28.4327 48.8524 29.2617 48.8524 30.1875C48.8524 30.7713 48.6289 31.3205 48.2228 31.7341L42.7217 37.3362C42.3023 37.7634 42.3024 38.4559 42.7218 38.883C43.1411 39.3101 43.8215 39.3101 44.241 38.8829L49.7421 33.2808C50.5538 32.4542 51.0009 31.3557 51.0009 30.1875C51.0009 28.6082 50.1625 27.1702 48.8524 26.3989V17.0625C48.8524 15.8563 49.8162 14.875 51.0009 14.875C52.1855 14.875 53.1493 15.8563 53.1493 17.0625V31.92C53.1493 33.9211 52.6533 35.9078 51.7149 37.6653C51.4314 38.196 51.6242 38.8601 52.1455 39.1486C52.6666 39.4371 53.3191 39.241 53.6024 38.7101C54.7115 36.633 55.2977 34.285 55.2977 31.92V17.0625C55.2977 14.6501 53.3702 12.6875 51.0009 12.6875Z" fill="black"/>
</g>
<defs>
<clipPath id="clip0_1_103">
<rect width="55" height="56" fill="white" transform="translate(0.297729)"/>
</clipPath>
</defs>
</svg>
