<svg width="31" height="31" viewBox="0 0 31 31" fill="none" xmlns="http://www.w3.org/2000/svg">
<g clip-path="url(#clip0_54_14)">
<path d="M10.2954 13.9839C12.6917 13.9839 14.6408 11.3683 14.6408 8.15243C14.6408 4.93677 12.6916 2.32037 10.2954 2.32037C7.89979 2.32037 5.95049 4.93669 5.95049 8.15243C5.95049 11.3683 7.89979 13.9839 10.2954 13.9839Z" fill="#F63D3D"/>
<path d="M23.184 19.6567C23.0949 19.5353 23.0094 19.4208 22.9638 19.3223C21.9921 17.2425 19.3288 14.7906 15.0139 14.7297L14.8478 14.7287C10.5992 14.7287 7.95569 17.0508 6.89803 19.2249C6.86151 19.2993 6.78115 19.3958 6.69602 19.4978C6.59528 19.6174 6.49562 19.7397 6.41042 19.8727C5.51694 21.2626 5.0614 22.8276 5.1286 24.2789C5.19904 25.8197 5.84414 27.0573 6.94194 27.7633C7.38549 28.0482 7.8641 28.1918 8.36625 28.1918C9.40168 28.1918 10.3497 27.6086 11.4483 26.9331C12.1467 26.5027 12.8682 26.0585 13.6695 25.7261C13.7593 25.6964 14.1274 25.6512 14.7293 25.6512C15.445 25.6512 15.9589 25.7149 16.0688 25.7528C16.851 26.0982 17.538 26.5512 18.2025 26.9884C19.2212 27.6598 20.183 28.2934 21.2266 28.2934C21.6745 28.2934 22.1086 28.1752 22.5181 27.9425C24.7776 26.6588 25.208 23.137 23.4781 20.0921C23.3913 19.9393 23.2879 19.7966 23.184 19.6567Z" fill="#F63D3D"/>
<path d="M19.5352 13.9839C21.9303 13.9839 23.8798 11.3683 23.8798 8.15243C23.8798 4.93677 21.9303 2.32037 19.5352 2.32037C17.1386 2.32037 15.1896 4.93669 15.1896 8.15243C15.1896 11.3683 17.1386 13.9839 19.5352 13.9839Z" fill="#F63D3D"/>
<path d="M26.6713 10.9894C24.7507 10.9894 23.2477 12.9812 23.2477 15.5239C23.2477 18.0655 24.7517 20.0574 26.6713 20.0574C28.5907 20.0574 30.0956 18.0655 30.0956 15.5239C30.0956 12.9812 28.5916 10.9894 26.6713 10.9894Z" fill="#F63D3D"/>
<path d="M6.94324 15.5239C6.94324 12.9812 5.43927 10.9894 3.51958 10.9894C1.59982 10.9894 0.0956116 12.9812 0.0956116 15.5239C0.0956116 18.0655 1.59982 20.0574 3.51958 20.0574C5.43935 20.0574 6.94324 18.0655 6.94324 15.5239Z" fill="#F63D3D"/>
</g>
<defs>
<clipPath id="clip0_54_14">
<rect width="30" height="30" fill="white" transform="translate(0.0956116 0.306885)"/>
</clipPath>
</defs>
</svg>
