<svg width="41" height="41" viewBox="0 0 41 41" fill="none" xmlns="http://www.w3.org/2000/svg">
<g clip-path="url(#clip0_1_185)">
<path d="M23.6048 23.5223C23.6715 21.115 22.5231 18.8686 20.5326 17.5135C18.5421 16.1583 16.0312 15.9134 13.8161 16.858L8.47802 19.134C7.59242 19.5115 6.86721 20.1507 6.38112 20.9818C5.89491 21.813 5.69362 22.7583 5.79853 23.7158C5.90418 24.673 6.30646 25.552 6.9618 26.2578C7.61715 26.9636 8.46435 27.4295 9.41143 27.6054L9.475 27.6169C11.8472 28.0755 13.9382 29.5098 15.2199 31.5599C15.5506 32.0886 15.9792 32.534 16.4837 32.8775C16.758 33.0642 17.0552 33.2209 17.371 33.3448C18.2678 33.6959 19.2331 33.748 20.1627 33.4953C21.0918 33.2426 21.8978 32.7088 22.4932 31.9516C23.0886 31.1945 23.4174 30.2856 23.4442 29.3229L23.6048 23.5223Z" fill="url(#paint0_linear_1_185)"/>
<path d="M11.9282 15.565C12.8997 15.7935 13.9073 15.5712 14.7653 14.939C15.5819 14.3375 16.167 13.4291 16.4128 12.3809C16.6581 11.3331 16.5376 10.2594 16.0737 9.35736C15.5863 8.40999 14.7828 7.76276 13.8122 7.53568C11.8605 7.07731 9.84938 8.5055 9.32856 10.7204C8.91596 12.4847 9.57202 14.2223 10.8425 15.0873C11.1669 15.3081 11.5314 15.4721 11.9282 15.565Z" fill="url(#paint1_linear_1_185)"/>
<path d="M19.1051 15.8207C21.0388 17.1372 23.8323 16.4159 25.3321 14.2129C26.8324 12.0093 26.4797 9.14552 24.546 7.82905C22.6125 6.5127 19.819 7.23446 18.3188 9.43807C16.8189 11.6411 17.1717 14.5044 19.1051 15.8207Z" fill="url(#paint2_linear_1_185)"/>
<path d="M24.4932 20.9256L24.4934 20.9257C24.7236 21.2269 24.995 21.4807 25.2971 21.6864C26.7073 22.6465 28.7804 22.5558 30.3787 21.3354C31.2989 20.633 31.9327 19.6594 32.1632 18.5941C32.4047 17.479 32.1812 16.398 31.5338 15.5502C30.8862 14.7023 29.9021 14.2021 28.7628 14.1414C27.6744 14.0834 26.5684 14.4385 25.6486 15.1412C23.7079 16.6232 23.1896 19.2181 24.4932 20.9256V20.9256Z" fill="url(#paint3_linear_1_185)"/>
<path d="M32.1958 25.4872L32.1956 25.4862C31.5328 23.5933 29.2478 22.6625 27.1013 23.4116C24.9554 24.1621 23.7471 26.3125 24.4074 28.2048C24.6481 28.8952 25.1048 29.4577 25.6921 29.8575C26.7155 30.5543 28.136 30.7569 29.5019 30.2809C31.6476 29.5302 32.8561 27.3799 32.1958 25.4872V25.4872Z" fill="url(#paint4_linear_1_185)"/>
</g>
<defs>
<linearGradient id="paint0_linear_1_185" x1="20.5327" y1="17.5135" x2="12.1031" y2="29.8951" gradientUnits="userSpaceOnUse">
<stop stop-color="#FFC852"/>
<stop offset="1" stop-color="#F8AD0E"/>
</linearGradient>
<linearGradient id="paint1_linear_1_185" x1="15.1614" y1="8.1887" x2="10.5844" y2="14.9115" gradientUnits="userSpaceOnUse">
<stop stop-color="#FFC852"/>
<stop offset="1" stop-color="#F8AD0E"/>
</linearGradient>
<linearGradient id="paint2_linear_1_185" x1="24.5462" y1="7.82917" x2="19.1053" y2="15.8209" gradientUnits="userSpaceOnUse">
<stop stop-color="#FFC852"/>
<stop offset="1" stop-color="#F8AD0E"/>
</linearGradient>
<linearGradient id="paint3_linear_1_185" x1="30.4808" y1="14.6165" x2="25.5502" y2="21.8587" gradientUnits="userSpaceOnUse">
<stop stop-color="#FFC852"/>
<stop offset="1" stop-color="#F8AD0E"/>
</linearGradient>
<linearGradient id="paint4_linear_1_185" x1="30.5285" y1="23.5752" x2="26.0742" y2="30.1177" gradientUnits="userSpaceOnUse">
<stop stop-color="#FFC852"/>
<stop offset="1" stop-color="#F8AD0E"/>
</linearGradient>
<clipPath id="clip0_1_185">
<rect width="28.8821" height="28.8821" fill="white" transform="translate(16.254) rotate(34.2476)"/>
</clipPath>
</defs>
</svg>
