<svg width="20" height="20" viewBox="0 0 20 20" fill="none" xmlns="http://www.w3.org/2000/svg">
<path d="M16.087 15.2174C14.8887 15.2174 13.9131 16.1931 13.9131 17.3913C13.9131 18.5896 14.8887 19.5653 16.087 19.5653C17.2853 19.5653 18.2609 18.5896 18.2609 17.3913C18.2609 16.193 17.2852 15.2174 16.087 15.2174ZM16.087 18.6957C15.3678 18.6957 14.7826 18.1105 14.7826 17.3913C14.7826 16.6722 15.3678 16.087 16.087 16.087C16.8061 16.087 17.3913 16.6722 17.3913 17.3913C17.3913 18.1105 16.8061 18.6957 16.087 18.6957Z" fill="white"/>
<path d="M7.39131 15.2174C6.19306 15.2174 5.21741 16.1931 5.21741 17.3913C5.21741 18.5896 6.19306 19.5653 7.39131 19.5653C8.58956 19.5653 9.56521 18.5896 9.56521 17.3914C9.56521 16.1931 8.5896 15.2174 7.39131 15.2174ZM7.39131 18.6957C6.67216 18.6957 6.08696 18.1105 6.08696 17.3913C6.08696 16.6722 6.67216 16.087 7.39131 16.087C8.11045 16.087 8.69566 16.6722 8.69566 17.3913C8.69566 18.1105 8.11045 18.6957 7.39131 18.6957Z" fill="white"/>
<path d="M17.8261 13.4783H7.79043C6.75824 13.4783 5.86175 12.7435 5.65913 11.7305L3.46957 0.78438C3.42869 0.580902 3.25044 0.434814 3.0435 0.434814H0.434797C0.194796 0.434814 0 0.629611 0 0.869611C0 1.10961 0.194796 1.30441 0.434797 1.30441H2.68696L4.80608 11.9018C5.08957 13.3192 6.34521 14.3479 7.79043 14.3479H17.8261C18.0661 14.3479 18.2609 14.1531 18.2609 13.9131C18.2609 13.6731 18.0661 13.4783 17.8261 13.4783Z" fill="white"/>
<path d="M19.8913 3.1904C19.8087 3.09734 19.6905 3.04346 19.5652 3.04346H3.91304C3.67304 3.04346 3.47824 3.23825 3.47824 3.47825C3.47824 3.71825 3.67304 3.91301 3.91304 3.91301H19.073L18.4548 8.85735C18.3731 9.50867 17.8165 9.99996 17.16 9.99996H5.21739C4.97739 9.99996 4.78259 10.1948 4.78259 10.4348C4.78259 10.6748 4.97739 10.8696 5.21739 10.8696H17.16C18.2539 10.8696 19.1818 10.0513 19.3174 8.96521L19.9965 3.53214C20.0122 3.40863 19.9739 3.28342 19.8913 3.1904Z" fill="white"/>
</svg>
